<mxfile host="app.diagrams.net" modified="2024-06-27T05:10:48.732Z" agent="Mozilla/5.0 (Macintosh; Intel Mac OS X 10_15_7) AppleWebKit/537.36 (KHTML, like Gecko) Chrome/125.0.0.0 Safari/537.36" version="24.4.0" etag="hjkpKszHDNPmXds_LUlo" type="github">
  <diagram name="Page-1" id="cPXebE8d43cmAomiVw6z">
    <mxGraphModel>
      <root>
        <mxCell id="0" />
        <mxCell id="1" parent="0" />
      </root>
    </mxGraphModel>
  </diagram>
</mxfile>
